<?xml version="1.0" encoding="iso-8859-1"?>
<!-- Generator: Adobe Illustrator 16.0.0, SVG Export Plug-In . SVG Version: 6.00 Build 0)  -->
<!DOCTYPE svg PUBLIC "-//W3C//DTD SVG 1.1//EN" "http://www.w3.org/Graphics/SVG/1.1/DTD/svg11.dtd">
<svg version="1.1" id="Capa_1" xmlns="http://www.w3.org/2000/svg" xmlns:xlink="http://www.w3.org/1999/xlink" x="0px" y="0px"
	 width="98px" height="98px" viewBox="0 0 144.708 144.708" style="enable-background:new 0 0 144.708 144.708;"
	 xml:space="preserve">
<g>
	<g>
		<path d="M66.356,80.749c0.499,0.664,0.828,1.327,0.828,1.942c0,4.214-12.084,10.339-31.006,10.339
			c-18.932,0-31.016-6.113-31.016-10.339c0-4.22,12.084-10.34,31.016-10.34c0.871,0,1.656,0.079,2.5,0.104
			c-1.41-1.065-2.6-2.234-3.529-3.501c-18.551,0.219-33.43,6.26-33.43,13.737v48.238c0,7.611,15.427,13.779,34.459,13.779
			c19.028,0,34.449-6.168,34.449-13.779V82.691c0-0.603-0.256-1.182-0.444-1.767C68.905,80.901,67.629,80.833,66.356,80.749z"/>
		<path d="M109.559,68.954c-0.925,1.267-2.125,2.436-3.531,3.501c0.847-0.024,1.632-0.104,2.503-0.104
			c18.931,0,31.012,6.12,31.012,10.34c0,4.226-12.081,10.339-31.012,10.339c-18.932,0-31.007-6.113-31.007-10.339
			c0-0.609,0.329-1.267,0.828-1.942c-1.272,0.085-2.548,0.14-3.827,0.176c-0.188,0.573-0.444,1.157-0.444,1.767v48.231
			c0,7.618,15.427,13.78,34.45,13.78c19.04,0,34.458-6.162,34.458-13.78V82.691C142.988,75.213,128.106,69.172,109.559,68.954z"/>
		<g>
			<path d="M72.354,0c-19.029,0-34.45,6.166-34.45,13.78v48.235c0,7.614,15.427,13.782,34.45,13.782
				c19.022,0,34.452-6.168,34.452-13.782V13.78C106.807,6.166,91.383,0,72.354,0z M72.354,3.45c18.931,0,31.018,6.116,31.018,10.336
				c0,4.217-12.087,10.34-31.018,10.34c-18.932,0-31.016-6.123-31.016-10.34C41.339,9.566,53.423,3.45,72.354,3.45z"/>
		</g>
	</g>
</g>
<g>
</g>
<g>
</g>
<g>
</g>
<g>
</g>
<g>
</g>
<g>
</g>
<g>
</g>
<g>
</g>
<g>
</g>
<g>
</g>
<g>
</g>
<g>
</g>
<g>
</g>
<g>
</g>
<g>
</g>
</svg>
